# xmcd
#
# Track frame offsets:
#	150
#	12303
#	34605
#	59911
#	73657
#	87758
#	104973
#	121126
#	139744
#	167169
#	184438
#	225154
#	251676
#	269425
#	284576
#	307133
#	317784
#
# Disc length: 4671 seconds
#
# Revision: 1
# Processed by: cddbd v1.5.1PL0 Copyright (c) Steve Scherf et al.
# Submitted via: audiograbber 1.83.01
#
DISCID=05123d11
DTITLE=João Bosco e Vinícius - João Bosco e Vinícius
DYEAR=1900
DGENRE=
TTITLE0=Desatino
TTITLE1=Barco Perdido
TTITLE2=Caçador De Corações
TTITLE3=De Igual Pra Igual
TTITLE4=Nova York
TTITLE5=Hoje Eu Quero Te Amar
TTITLE6=Argentina
TTITLE7=Saudade
TTITLE8=Será que me esqueceu
TTITLE9=Destino
TTITLE10=Sonho Mais Lindo
TTITLE11=Mulher Bandida
TTITLE12=Coração Profano
TTITLE13=Faz de Conta
TTITLE14=Sabor de Saudade
TTITLE15=Poica
TTITLE16=Magia e Mistério
EXTD=
EXTT0=
EXTT1=
EXTT2=
EXTT3=
EXTT4=
EXTT5=
EXTT6=
EXTT7=
EXTT8=
EXTT9=
EXTT10=
EXTT11=
EXTT12=
EXTT13=
EXTT14=
EXTT15=
EXTT16=
PLAYORDER=
